<?xml version="1.0" standalone="no"?>
<!DOCTYPE svg PUBLIC "-//W3C//DTD SVG 20010904//EN"
 "http://www.w3.org/TR/2001/REC-SVG-20010904/DTD/svg10.dtd">
<svg version="1.0" xmlns="http://www.w3.org/2000/svg"
 width="310.000000pt" height="310.000000pt" viewBox="0 0 310.000000 310.000000"
 preserveAspectRatio="xMidYMid meet">
<metadata>
Created by potrace 1.14, written by Peter Selinger 2001-2017
</metadata>
<g transform="translate(0.000000,310.000000) scale(0.100000,-0.100000)"
fill="#000000" stroke="none">
<path d="M1266 2458 c-3 -29 -6 -88 -6 -130 0 -61 3 -78 14 -78 9 0 21 21 30
53 32 109 75 137 223 145 l103 5 -1 -424 c0 -301 -4 -434 -12 -458 -13 -37
-54 -59 -110 -60 -18 -1 -27 -6 -25 -13 4 -10 50 -14 177 -16 l173 -2 -7 -23
c-17 -52 -17 -165 0 -223 46 -161 166 -257 320 -258 140 0 236 94 320 314 21
52 39 97 41 99 2 2 80 -27 174 -65 l171 -69 -8 -65 c-14 -116 -9 -299 9 -361
31 -99 106 -165 211 -184 46 -9 50 9 5 24 -48 17 -95 68 -115 125 -14 41 -18
83 -18 211 0 88 3 172 8 187 7 25 9 26 67 21 50 -5 61 -3 66 11 8 21 -4 35
-16 17 -9 -15 -86 -10 -100 6 -4 4 6 87 22 183 38 228 41 375 11 442 -29 64
-70 88 -148 88 -148 -1 -215 -83 -310 -383 -26 -81 -49 -147 -52 -147 -2 0
-47 14 -99 31 -85 29 -96 35 -111 66 -57 120 -273 131 -390 20 -29 -27 -35
-29 -58 -19 -14 7 -30 23 -35 38 -6 15 -10 199 -10 456 l0 431 103 -5 c148 -8
180 -28 218 -142 10 -28 25 -52 33 -54 18 -4 20 21 10 166 l-7 92 -432 0 -432
0 -7 -52z m1621 -533 c31 -21 47 -102 39 -194 -5 -65 -65 -441 -72 -449 -3 -4
-327 127 -336 136 -7 7 51 206 91 313 32 85 89 160 141 187 51 25 106 29 137
7z m-714 -339 c31 -13 87 -62 87 -76 0 -4 -23 -10 -50 -12 -61 -6 -90 -29 -90
-73 0 -40 21 -59 65 -59 48 0 83 22 97 61 7 18 16 33 22 33 5 0 47 -12 93 -27
74 -24 82 -29 77 -48 -77 -250 -176 -375 -297 -375 -225 0 -358 360 -194 524
60 60 128 79 190 52z m97 -130 c0 -25 -41 -67 -64 -64 -27 4 -33 34 -10 59 20
22 74 26 74 5z"/>
<path d="M51 2315 l-31 -35 6 -228 c10 -473 22 -587 85 -817 34 -125 49 -144
96 -120 15 8 33 15 39 15 6 0 18 8 26 18 15 15 14 28 -8 137 -28 145 -56 378
-52 435 3 41 4 40 133 -176 72 -120 139 -233 150 -251 23 -39 54 -43 92 -13
14 11 31 20 38 20 20 0 26 62 11 112 -7 26 -34 80 -59 121 -24 41 -54 96 -66
122 -12 26 -50 87 -85 134 -73 98 -93 136 -98 176 -3 26 5 35 62 77 36 27 83
63 105 81 22 19 48 36 57 40 9 3 25 26 36 50 11 24 25 48 31 51 17 11 13 51
-7 69 -38 35 -68 22 -162 -68 -49 -47 -94 -85 -102 -85 -7 0 -35 -18 -61 -39
-45 -38 -97 -59 -115 -47 -5 3 -7 41 -4 85 6 102 0 125 -42 150 -18 12 -36 21
-39 21 -3 0 -19 -16 -36 -35z"/>
<path d="M1061 2164 c-64 -54 -26 -159 57 -159 58 0 92 34 92 91 0 35 -5 47
-31 68 -17 15 -43 26 -59 26 -16 0 -42 -11 -59 -26z"/>
<path d="M1015 1876 c-5 -16 -126 -717 -128 -740 -2 -16 8 -21 61 -31 60 -11
63 -11 67 9 7 28 123 694 127 726 3 23 -1 25 -60 36 -47 9 -64 9 -67 0z"/>
<path d="M1170 880 c0 -229 1 -240 19 -240 17 0 19 9 23 99 3 110 18 141 68
141 55 0 65 -18 68 -134 4 -99 5 -106 24 -106 20 0 21 4 16 108 -3 60 -10 118
-17 129 -22 42 -113 51 -136 14 -18 -30 -25 -1 -25 109 0 113 -1 120 -20 120
-19 0 -20 -7 -20 -240z"/>
<path d="M718 1073 c-16 -4 -18 -23 -18 -207 0 -192 -1 -204 -21 -221 -17 -16
-24 -17 -52 -7 -40 15 -63 -2 -33 -24 32 -23 93 -18 121 11 25 24 25 24 25
240 0 118 -1 214 -2 214 -2 -1 -11 -3 -20 -6z"/>
<path d="M917 905 c-66 -23 -97 -65 -97 -132 0 -78 60 -137 140 -137 111 0
177 126 115 220 -30 47 -102 69 -158 49z m92 -39 c48 -25 65 -91 36 -146 -19
-37 -43 -50 -90 -50 -54 0 -95 44 -95 102 0 87 73 133 149 94z"/>
<path d="M1546 905 c-42 -15 -49 -22 -72 -72 -36 -82 10 -182 91 -197 30 -6
60 2 118 32 4 2 7 -3 7 -12 0 -9 8 -16 20 -16 19 0 20 7 20 135 0 128 -1 135
-20 135 -14 0 -20 -7 -20 -21 0 -20 0 -20 -27 -1 -40 28 -73 32 -117 17z m111
-49 c25 -21 28 -31 28 -81 0 -50 -3 -60 -28 -81 -48 -41 -113 -29 -142 26 -19
37 -19 73 0 110 29 56 94 67 142 26z"/>
<path d="M1914 910 c-12 -5 -25 -13 -29 -19 -9 -16 -25 -13 -25 4 0 8 -9 15
-20 15 -19 0 -20 -7 -20 -135 0 -126 1 -135 19 -135 17 0 19 9 23 99 3 110 18
141 68 141 55 0 64 -18 68 -134 3 -82 7 -106 18 -106 11 0 14 22 14 105 0 118
-10 150 -53 165 -35 12 -35 12 -63 0z"/>
<path d="M2224 910 c-12 -5 -25 -13 -29 -19 -9 -16 -25 -13 -25 4 0 8 -9 15
-20 15 -19 0 -20 -7 -20 -135 0 -126 1 -135 19 -135 17 0 19 9 23 99 3 110 18
141 68 141 54 0 63 -17 68 -134 3 -81 8 -106 18 -106 11 0 14 23 14 105 0 118
-10 150 -53 165 -35 12 -35 12 -63 0z"/>
<path d="M2515 913 c-80 -21 -119 -124 -79 -208 18 -38 45 -59 91 -69 27 -6
58 2 116 32 4 2 7 -3 7 -12 0 -9 8 -16 20 -16 20 0 20 5 18 132 -3 117 -5 133
-20 136 -13 2 -18 -3 -18 -17 0 -26 -8 -26 -34 -2 -23 21 -70 32 -101 24z m86
-43 c24 -13 49 -61 49 -95 0 -34 -25 -82 -49 -95 -33 -17 -78 -11 -107 13 -20
18 -28 35 -32 75 -4 47 -2 54 26 82 32 32 76 40 113 20z"/>
</g>
</svg>
